# xmcd CD database file
#
# Track frame offsets:
#	150
#	15706
#	30115
#	47445
#	61296
#	76752
#	92305
#	110120
#	128024
#	141946
#	159734
#	178375
#	193519
#	211180
#
# Disc length: 3042 seconds
#
# Revision: 0
# Processed by: cddbd v1.5.2PL0 Copyright (c) Steve Scherf et al.
# Submitted via: CDex 1.79
#
DISCID=af0be00e
DTITLE=David Adam Byrnes - Premium Country
DYEAR=2011
DGENRE=Country
TTITLE0=Sweet Distraction 
TTITLE1=One Too Many Times 
TTITLE2=She Only Wanted Flowers 
TTITLE3=Maybe She Won't Go  
TTITLE4=If You Didn't Have A Woman 
TTITLE5=My Kind Of Crowd 
TTITLE6=When I'm Done Missing You 
TTITLE7=Down Homegrown 
TTITLE8=That's What I Tell  Myself
TTITLE9=More Afraid Of Livin` 
TTITLE10=Any Other Way 
TTITLE11=Long Gone 
TTITLE12=The Jukebox, The Bottle And Me  
TTITLE13=When I Get There  
EXTD=YEAR: 2011
EXTT0=
EXTT1=
EXTT2=
EXTT3=
EXTT4=
EXTT5=
EXTT6=
EXTT7=
EXTT8=
EXTT9=
EXTT10=
EXTT11=
EXTT12=
EXTT13=
PLAYORDER=
